<mxfile host="Electron" modified="2024-05-07T09:15:12.645Z" agent="Mozilla/5.0 (X11; Linux x86_64) AppleWebKit/537.36 (KHTML, like Gecko) draw.io/24.2.5 Chrome/120.0.6099.109 Electron/28.1.0 Safari/537.36" etag="rgMCMvGlEUg5-hS2W91U" version="24.2.5" type="device">
  <diagram name="Page-1" id="1XZ-xNmcKWFrNmWdW8MO">
    <mxGraphModel dx="1674" dy="843" grid="1" gridSize="10" guides="1" tooltips="1" connect="1" arrows="1" fold="1" page="1" pageScale="1" pageWidth="1169" pageHeight="827" math="0" shadow="0">
      <root>
        <mxCell id="0" />
        <mxCell id="1" parent="0" />
        <mxCell id="WAaQaNZqBFIDcb4dcH8t-1" value="" style="rounded=0;whiteSpace=wrap;html=1;" vertex="1" parent="1">
          <mxGeometry x="390" y="209" width="380" height="410" as="geometry" />
        </mxCell>
        <mxCell id="3P0wj3IJdkE-8z5oh4mF-1" value="" style="ellipse;whiteSpace=wrap;html=1;aspect=fixed;fillColor=#808080;" parent="1" vertex="1">
          <mxGeometry x="480" y="309" width="210" height="210" as="geometry" />
        </mxCell>
      </root>
    </mxGraphModel>
  </diagram>
</mxfile>
